<svg xmlns="http://www.w3.org/2000/svg" width="36.211" height="40.931" viewBox="0 0 36.211 40.931">
  <g id="Group_13777" data-name="Group 13777" transform="translate(-905.499 -469.956)">
    <path id="Path_17432" data-name="Path 17432" d="M-3350.924-15947.75H-3369.5a1,1,0,0,1-1-1v-26a1,1,0,0,1,1-1h21a1,1,0,0,1,1,1v13.978a4.605,4.605,0,0,0-.9.7l-.89.89-.89-.89a4.588,4.588,0,0,0-3.268-1.354,4.589,4.589,0,0,0-3.268,1.354,4.63,4.63,0,0,0,0,6.535l.89.886,4.9,4.9Z" transform="translate(4277 16456)" fill="#fff" stroke="#000" stroke-width="2"/>
    <path id="Icon_feather-heart" data-name="Icon feather-heart" d="M18.524,5.851a4.619,4.619,0,0,0-6.534,0l-.89.89-.89-.89a4.62,4.62,0,1,0-6.534,6.534l.89.89L11.1,19.809l6.534-6.534.89-.89a4.619,4.619,0,0,0,0-6.534Z" transform="translate(916.612 490.078)" fill="#fc5692" stroke="#000" stroke-linecap="round" stroke-linejoin="round" stroke-width="2"/>
    <path id="Path_17431" data-name="Path 17431" d="M0,0H3" transform="translate(910 484.75)" fill="none" stroke="#000" stroke-linecap="round" stroke-width="2"/>
    <path id="Path_17430" data-name="Path 17430" d="M0,0H3" transform="translate(910 488.75)" fill="none" stroke="#000" stroke-linecap="round" stroke-width="2"/>
    <path id="Path_17429" data-name="Path 17429" d="M0,0H3" transform="translate(909.999 492.75)" fill="none" stroke="#000" stroke-linecap="round" stroke-width="2"/>
    <path id="Path_17428" data-name="Path 17428" d="M0,0H10" transform="translate(916 484.75)" fill="none" stroke="#000" stroke-linecap="round" stroke-width="2"/>
    <path id="Path_17427" data-name="Path 17427" d="M0,0H10" transform="translate(916 488.75)" fill="none" stroke="#000" stroke-linecap="round" stroke-width="2"/>
    <path id="Path_17426" data-name="Path 17426" d="M0,0H10" transform="translate(915.999 492.75)" fill="none" stroke="#000" stroke-linecap="round" stroke-width="2"/>
    <path id="Path_17425" data-name="Path 17425" d="M0,0V4" transform="matrix(-0.326, 0.946, -0.946, -0.326, 937.663, 484.75)" fill="none" stroke="#000" stroke-linecap="round" stroke-width="2"/>
    <path id="Path_17424" data-name="Path 17424" d="M4,0H0" transform="translate(929.197 471.168) rotate(104)" fill="none" stroke="#000" stroke-linecap="round" stroke-width="2"/>
    <path id="Path_17423" data-name="Path 17423" d="M0,0,6,5" transform="translate(940.002 473.348) rotate(104)" fill="none" stroke="#000" stroke-linecap="round" stroke-width="2"/>
  </g>
</svg>
